# 3ds Max Wavefront OBJ Exporter v0.97b - (c)2007 guruware
# File Created: 01.05.2018 13:09:58

#
# object Highrise_1
#

v  68.2000 388.3510 68.2000
v  -68.2000 388.3510 68.2000
v  -68.2000 26.5530 68.2000
v  68.2000 26.5530 68.2000
v  68.2000 388.3510 -68.2000
v  68.2000 26.5530 -68.2000
v  -68.2000 388.3510 -68.2000
v  -68.2000 26.5530 -68.2000
v  -13.5159 506.4510 18.9540
v  -27.0431 506.4510 18.9540
v  -27.0431 506.4510 24.5436
v  -13.5159 506.4510 24.5436
v  68.2000 5.7530 68.2000
v  -68.2000 5.7530 68.2000
v  -68.2000 5.7530 -68.2000
v  68.2000 5.7530 -68.2000
v  -63.3000 393.0509 63.3000
v  63.3000 393.0509 63.3000
v  63.3000 404.4510 63.3000
v  -63.3000 404.4510 63.3000
v  63.3000 393.0509 -63.3000
v  63.3000 404.4510 -63.3000
v  -63.3000 393.0509 -63.3000
v  -63.3000 404.4510 -63.3000
v  57.8000 409.1509 57.8000
v  -57.8000 409.1509 57.8000
v  -68.2000 409.1509 68.2000
v  68.2000 409.1509 68.2000
v  57.8000 409.1509 -57.8000
v  68.2000 409.1509 -68.2000
v  -57.8000 409.1509 -57.8000
v  -68.2000 409.1509 -68.2000
v  57.8000 421.2509 57.8000
v  -57.8000 421.2509 57.8000
v  57.8000 421.2509 -57.8000
v  -57.8000 421.2509 -57.8000
v  -68.2000 404.4510 68.2000
v  68.2000 404.4510 68.2000
v  68.2000 393.0509 68.2000
v  -68.2000 393.0509 68.2000
v  68.2000 404.4510 -68.2000
v  68.2000 393.0509 -68.2000
v  -68.2000 404.4510 -68.2000
v  -68.2000 393.0509 -68.2000
v  45.7108 421.2509 50.1488
v  -45.7108 421.2509 50.1488
v  45.7108 421.2509 -6.6512
v  -45.7108 421.2509 -6.6512
v  45.7108 435.4510 50.1488
v  -45.7108 435.4510 50.1488
v  45.7108 435.4510 -6.6512
v  -45.7108 435.4510 -6.6512
v  43.2881 438.5509 48.6436
v  -43.2881 438.5509 48.6436
v  43.2881 438.5509 -5.1460
v  -43.2881 438.5509 -5.1460
v  -9.2159 438.5509 28.8436
v  -31.3431 438.5509 28.8436
v  -9.2159 438.5509 14.6540
v  -31.3431 438.5509 14.6540
v  -9.2159 453.5509 28.8436
v  -31.3431 453.5509 28.8436
v  -9.2159 453.5509 14.6540
v  -31.3431 453.5509 14.6540
v  -13.5159 453.5509 24.5436
v  -27.0431 453.5509 24.5436
v  -13.5159 453.5509 18.9540
v  -27.0431 453.5509 18.9540
# 68 vertices

vn 0.0000 0.0000 1.0000
vn 1.0000 0.0000 -0.0000
vn 0.0000 0.0000 -1.0000
vn -1.0000 0.0000 -0.0000
vn 0.5774 0.5774 -0.5774
vn -0.5774 0.5774 -0.5774
vn -0.5774 0.5774 0.5774
vn 0.5774 0.5774 0.5774
vn 0.0000 -1.0000 -0.0000
vn -0.7071 -0.7071 -0.0000
vn 0.7071 -0.7071 -0.0000
vn 0.0000 0.5054 0.8629
vn 0.0000 -0.5054 0.8629
vn 0.7071 0.7071 -0.0000
vn 0.0000 0.5054 -0.8629
vn 0.0000 -0.5054 -0.8629
vn -0.7071 0.7071 -0.0000
vn 0.3015 0.9045 0.3015
vn -0.3015 0.9045 0.3015
vn 0.0000 1.0000 -0.0000
vn 0.3015 0.9045 -0.3015
vn -0.3015 0.9045 -0.3015
vn 0.0000 -0.4472 0.8944
vn 0.0000 0.4472 0.8944
vn 0.8944 -0.4472 -0.0000
vn 0.8944 0.4472 -0.0000
vn 0.0000 -0.4472 -0.8944
vn 0.0000 0.4472 -0.8944
vn -0.8944 -0.4472 -0.0000
vn -0.8944 0.4472 -0.0000
vn 0.0000 -0.8997 0.4366
vn 0.0000 0.8997 0.4366
vn 0.0000 -0.8997 -0.4366
vn 0.0000 0.8997 -0.4366
vn 0.6830 0.3145 0.6592
vn -0.6830 0.3145 0.6592
vn 0.6830 0.3145 -0.6592
vn -0.6830 0.3145 -0.6592
vn 0.3411 0.8311 0.4392
vn -0.3411 0.8311 0.4392
vn 0.3411 0.8311 -0.4392
vn -0.3411 0.8311 -0.4392
# 42 vertex normals

vt 0.9537 0.9537 0.0000
vt 0.0463 0.9537 0.0000
vt 0.0463 0.0463 0.0000
vt 0.9537 0.0463 0.0000
vt 0.5530 0.5530 0.0000
vt 0.4470 0.5530 0.0000
vt 0.4470 0.4470 0.0000
vt 0.5530 0.4470 0.0000
vt 1.0000 1.0000 0.0000
vt 0.0000 1.0000 0.0000
vt 0.0000 0.0000 0.0000
vt 1.0000 0.0000 0.0000
vt 0.0509 0.9540 0.0000
vt 0.9491 0.9540 0.0000
vt 0.9949 0.9998 0.0000
vt 0.0051 0.9998 0.0000
vt 0.9238 0.0762 0.0000
vt 0.0762 0.0762 0.0000
vt 0.9238 0.9238 0.0000
vt 0.0762 0.9238 0.0000
vt 0.7082 0.2918 0.0000
vt 0.2918 0.2918 0.0000
vt 0.7082 0.7082 0.0000
vt 0.2918 0.7082 0.0000
vt 0.5968 0.4032 0.0000
vt 0.4032 0.4032 0.0000
vt 0.5968 0.5968 0.0000
vt 0.4032 0.5968 0.0000
# 28 texture coords

o Highrise_1
g Highrise_1
s off
f 1/1/1 2/2/1 3/3/1 
f 4/4/1 1/1/1 3/3/1 
f 5/1/2 1/2/2 4/3/2 
f 6/4/2 5/1/2 4/3/2 
f 7/1/3 5/2/3 6/3/3 
f 8/4/3 7/1/3 6/3/3 
f 2/1/4 7/2/4 8/3/4 
f 3/4/4 2/1/4 8/3/4 
f 9/5/5 10/6/6 11/7/7 
f 12/8/8 9/5/5 11/7/7 
f 13/9/9 14/10/9 15/11/10 
f 16/12/11 13/9/9 15/11/10 
f 4/4/1 3/3/1 14/11/1 
f 13/12/1 4/4/1 14/11/1 
f 17/13/1 18/14/12 19/15/13 
f 20/16/1 17/13/1 19/15/13 
f 6/4/2 4/3/2 13/11/2 
f 16/12/11 6/4/2 13/11/2 
f 18/13/14 21/14/14 22/15/11 
f 19/16/11 18/13/14 22/15/11 
f 8/4/3 6/3/3 16/11/3 
f 15/12/3 8/4/3 16/11/3 
f 21/13/15 23/14/3 24/15/3 
f 22/16/16 21/13/15 24/15/3 
f 3/4/4 8/3/4 15/11/10 
f 14/12/4 3/4/4 15/11/10 
f 23/13/10 17/14/10 20/15/17 
f 24/16/17 23/13/10 20/15/17 
f 25/17/18 26/18/19 27/11/20 
f 28/12/20 25/17/18 27/11/20 
f 29/19/21 25/17/18 28/12/20 
f 30/9/14 29/19/21 28/12/20 
f 31/20/22 29/19/21 30/9/14 
f 32/10/17 31/20/22 30/9/14 
f 26/18/19 31/20/22 32/10/17 
f 27/11/20 26/18/19 32/10/17 
f 33/17/8 34/18/7 26/18/19 
f 25/17/18 33/17/8 26/18/19 
f 35/19/5 33/17/8 25/17/18 
f 29/19/21 35/19/5 25/17/18 
f 36/20/6 35/19/5 29/19/21 
f 31/20/22 36/20/6 29/19/21 
f 34/18/7 36/20/6 31/20/22 
f 26/18/19 34/18/7 31/20/22 
f 37/16/23 38/15/23 28/9/1 
f 27/10/1 37/16/23 28/9/1 
f 39/14/24 40/13/24 2/2/1 
f 1/1/1 39/14/24 2/2/1 
f 38/16/25 41/15/25 30/9/14 
f 28/10/2 38/16/25 30/9/14 
f 42/14/26 39/13/26 1/2/2 
f 5/1/2 42/14/26 1/2/2 
f 41/16/27 43/15/27 32/9/3 
f 30/10/3 41/16/27 32/9/3 
f 44/14/28 42/13/28 5/2/3 
f 7/1/3 44/14/28 5/2/3 
f 43/16/29 37/15/29 27/9/4 
f 32/10/17 43/16/29 27/9/4 
f 40/14/30 44/13/30 7/2/4 
f 2/1/4 40/14/30 7/2/4 
f 20/16/9 19/15/31 38/15/23 
f 37/16/23 20/16/9 38/15/23 
f 18/14/32 17/13/20 40/13/24 
f 39/14/24 18/14/32 40/13/24 
f 19/16/9 22/15/9 41/15/25 
f 38/16/25 19/16/9 41/15/25 
f 21/14/20 18/13/20 39/13/26 
f 42/14/26 21/14/20 39/13/26 
f 22/16/33 24/15/9 43/15/27 
f 41/16/27 22/16/33 43/15/27 
f 23/14/20 21/13/34 42/13/28 
f 44/14/28 23/14/20 42/13/28 
f 24/16/9 20/15/9 37/15/29 
f 43/16/29 24/16/9 37/15/29 
f 17/14/20 23/13/20 44/13/30 
f 40/14/30 17/14/20 44/13/30 
f 20/16/1 19/15/13 19/15/31 
f 20/16/9 20/16/1 19/15/31 
f 18/14/12 17/13/1 17/13/20 
f 18/14/32 18/14/12 17/13/20 
f 19/16/11 22/15/11 22/15/9 
f 19/16/9 19/16/11 22/15/9 
f 21/14/14 18/13/14 18/13/20 
f 21/14/20 21/14/14 18/13/20 
f 22/16/16 24/15/3 24/15/9 
f 22/16/33 22/16/16 24/15/9 
f 23/14/3 21/13/15 21/13/34 
f 23/14/20 23/14/3 21/13/34 
f 24/16/17 20/15/17 20/15/9 
f 24/16/9 24/16/17 20/15/9 
f 17/14/10 23/13/10 23/13/20 
f 17/14/20 17/14/10 23/13/20 
f 45/21/18 46/22/19 34/18/7 
f 33/17/8 45/21/18 34/18/7 
f 47/23/21 45/21/18 33/17/8 
f 35/19/5 47/23/21 33/17/8 
f 48/24/22 47/23/21 35/19/5 
f 36/20/6 48/24/22 35/19/5 
f 46/22/19 48/24/22 36/20/6 
f 34/18/7 46/22/19 36/20/6 
f 49/21/35 50/22/36 46/22/19 
f 45/21/18 49/21/35 46/22/19 
f 51/23/37 49/21/35 45/21/18 
f 47/23/21 51/23/37 45/21/18 
f 52/24/38 51/23/37 47/23/21 
f 48/24/22 52/24/38 47/23/21 
f 50/22/36 52/24/38 48/24/22 
f 46/22/19 50/22/36 48/24/22 
f 53/21/39 54/22/40 50/22/36 
f 49/21/35 53/21/39 50/22/36 
f 55/23/41 53/21/39 49/21/35 
f 51/23/37 55/23/41 49/21/35 
f 56/24/42 55/23/41 51/23/37 
f 52/24/38 56/24/42 51/23/37 
f 54/22/40 56/24/42 52/24/38 
f 50/22/36 54/22/40 52/24/38 
f 57/25/18 58/26/19 54/22/40 
f 53/21/39 57/25/18 54/22/40 
f 59/27/21 57/25/18 53/21/39 
f 55/23/41 59/27/21 53/21/39 
f 60/28/22 59/27/21 55/23/41 
f 56/24/42 60/28/22 55/23/41 
f 58/26/19 60/28/22 56/24/42 
f 54/22/40 58/26/19 56/24/42 
f 61/25/8 62/26/7 58/26/19 
f 57/25/18 61/25/8 58/26/19 
f 63/27/5 61/25/8 57/25/18 
f 59/27/21 63/27/5 57/25/18 
f 64/28/6 63/27/5 59/27/21 
f 60/28/22 64/28/6 59/27/21 
f 62/26/7 64/28/6 60/28/22 
f 58/26/19 62/26/7 60/28/22 
f 65/8/18 66/7/19 62/26/7 
f 61/25/8 65/8/18 62/26/7 
f 67/5/21 65/8/18 61/25/8 
f 63/27/5 67/5/21 61/25/8 
f 68/6/22 67/5/21 63/27/5 
f 64/28/6 68/6/22 63/27/5 
f 66/7/19 68/6/22 64/28/6 
f 62/26/7 66/7/19 64/28/6 
f 12/8/8 11/7/7 66/7/19 
f 65/8/18 12/8/8 66/7/19 
f 9/5/5 12/8/8 65/8/18 
f 67/5/21 9/5/5 65/8/18 
f 10/6/6 9/5/5 67/5/21 
f 68/6/22 10/6/6 67/5/21 
f 11/7/7 10/6/6 68/6/22 
f 66/7/19 11/7/7 68/6/22 
# 0 polygons - 148 triangles

