# 3ds Max Wavefront OBJ Exporter v0.97b - (c)2007 guruware
# File Created: 01.05.2018 13:11:16

#
# object Highrise_9
#

v  93.8000 194.5735 103.5000
v  -93.7999 194.5735 103.5000
v  -93.7999 6.9735 103.5000
v  93.8000 6.9735 103.5000
v  103.5000 194.5735 -93.8000
v  103.5000 194.5735 93.8000
v  103.5000 6.9735 93.8000
v  103.5000 6.9735 -93.8000
v  -93.7999 194.5735 -103.5000
v  93.8000 194.5735 -103.5000
v  93.8000 6.9735 -103.5000
v  -93.7999 6.9735 -103.5000
v  -103.5000 194.5735 93.8000
v  -103.5000 194.5735 -93.8000
v  -103.5000 6.9735 -93.8000
v  -103.5000 6.9735 93.8000
v  6.0000 469.8735 -6.0000
v  -6.0000 469.8735 -6.0000
v  -6.0000 469.8735 6.0000
v  6.0000 469.8735 6.0000
v  100.0000 0.7735 100.0000
v  -100.0000 0.7735 100.0000
v  -100.0000 0.7735 -100.0000
v  100.0000 0.7735 -100.0000
v  93.8000 6.9735 100.0000
v  -93.7999 6.9735 100.0000
v  93.8000 194.5735 100.0000
v  100.0000 200.7735 100.0000
v  -93.7999 194.5735 100.0000
v  -100.0000 200.7735 100.0000
v  100.0000 6.9735 -93.8000
v  100.0000 6.9735 93.8000
v  100.0000 194.5735 -93.8000
v  100.0000 200.7735 -100.0000
v  100.0000 194.5735 93.8000
v  -93.7999 6.9735 -100.0000
v  93.8000 6.9735 -100.0000
v  -93.7999 194.5735 -100.0000
v  -100.0000 200.7735 -100.0000
v  93.8000 194.5735 -100.0000
v  -100.0000 6.9735 93.8000
v  -100.0000 6.9735 -93.8000
v  -100.0000 194.5735 93.8000
v  -100.0000 194.5735 -93.8000
v  97.0000 200.7735 97.0000
v  -97.0000 200.7735 97.0000
v  97.0000 200.7735 -97.0000
v  -97.0000 200.7735 -97.0000
v  97.0000 251.8735 97.0000
v  -97.0000 251.8735 97.0000
v  97.0000 251.8735 -97.0000
v  -97.0000 251.8735 -97.0000
v  90.0000 251.8735 90.0000
v  -90.0000 251.8735 90.0000
v  90.0000 251.8735 -90.0000
v  -90.0000 251.8735 -90.0000
v  90.0000 225.1735 90.0000
v  -90.0000 225.1735 90.0000
v  90.0000 225.1735 -90.0000
v  -90.0000 225.1735 -90.0000
v  78.3000 225.1735 78.3000
v  -78.2999 225.1735 78.3000
v  78.3000 225.1735 -78.3000
v  -78.2999 225.1735 -78.3000
v  78.3000 287.4735 78.3000
v  -78.2999 287.4735 78.3000
v  78.3000 287.4735 -78.3000
v  -78.2999 287.4735 -78.3000
v  72.4000 287.4735 72.4000
v  -72.3999 287.4735 72.4000
v  72.4000 287.4735 -72.4000
v  -72.3999 287.4735 -72.4000
v  72.4000 267.0735 72.4000
v  -72.3999 267.0735 72.4000
v  72.4000 267.0735 -72.4000
v  -72.3999 267.0735 -72.4000
v  63.9000 267.0735 63.9000
v  -63.8999 267.0735 63.9000
v  63.9000 267.0735 -63.9000
v  -63.8999 267.0735 -63.9000
v  63.9000 332.9735 63.9000
v  -63.8999 332.9735 63.9000
v  63.9000 332.9735 -63.9000
v  -63.8999 332.9735 -63.9000
v  -13.7999 383.0735 13.8000
v  -13.7999 383.0735 -13.8000
v  13.8000 383.0735 -13.8000
v  13.8000 383.0735 13.8000
v  13.8000 423.8735 13.8000
v  -13.7999 423.8735 13.8000
v  13.8000 423.8735 -13.8000
v  -13.7999 423.8735 -13.8000
v  6.0000 423.8735 6.0000
v  -6.0000 423.8735 6.0000
v  6.0000 423.8735 -6.0000
v  -6.0000 423.8735 -6.0000
v  6.0000 469.6735 6.0000
v  -6.0000 469.6735 6.0000
v  6.0000 469.6735 -6.0000
v  -6.0000 469.6735 -6.0000
# 100 vertices

vn 0.5774 0.5774 0.5774
vn -0.5774 0.5774 0.5774
vn -0.5774 -0.5774 0.5774
vn 0.5774 -0.5774 0.5774
vn 0.5774 0.5774 -0.5774
vn 0.5774 -0.5774 -0.5774
vn -0.5774 0.5774 -0.5774
vn -0.5774 -0.5774 -0.5774
vn 0.0000 -1.0000 -0.0000
vn -0.7071 -0.7071 -0.0000
vn 0.7071 -0.7071 -0.0000
vn 0.3015 -0.3015 0.9045
vn -0.3015 -0.3015 0.9045
vn 0.0000 0.0000 1.0000
vn 0.3015 0.3015 0.9045
vn -0.3015 0.3015 0.9045
vn 0.9045 -0.3015 -0.3015
vn 0.9045 -0.3015 0.3015
vn 1.0000 0.0000 -0.0000
vn 0.9045 0.3015 -0.3015
vn 0.7071 0.7071 -0.0000
vn 0.9045 0.3015 0.3015
vn -0.3015 -0.3015 -0.9045
vn 0.3015 -0.3015 -0.9045
vn 0.0000 0.0000 -1.0000
vn -0.3015 0.3015 -0.9045
vn 0.3015 0.3015 -0.9045
vn -0.9045 -0.3015 0.3015
vn -0.9045 -0.3015 -0.3015
vn -1.0000 0.0000 -0.0000
vn -0.9045 0.3015 0.3015
vn -0.9045 0.3015 -0.3015
vn -0.7071 0.7071 -0.0000
vn 0.3015 0.9045 0.3015
vn -0.3015 0.9045 0.3015
vn 0.0000 1.0000 -0.0000
vn 0.3015 0.9045 -0.3015
vn -0.3015 0.9045 -0.3015
vn 0.6507 0.3914 0.6507
vn -0.6507 0.3914 0.6507
vn 0.6507 0.3914 -0.6507
vn -0.6507 0.3914 -0.6507
vn -0.5789 0.5743 0.5789
vn -0.5789 0.5743 -0.5789
vn 0.5789 0.5743 -0.5789
vn 0.5789 0.5743 0.5789
vn 0.7071 0.0000 0.7071
vn -0.7071 0.0000 0.7071
vn 0.7071 0.0000 -0.7071
vn -0.7071 0.0000 -0.7071
# 50 vertex normals

vt 0.9690 0.9690 0.0000
vt 0.0310 0.9690 0.0000
vt 0.0310 0.0310 0.0000
vt 0.9690 0.0310 0.0000
vt 0.5300 0.5300 0.0000
vt 0.4700 0.5300 0.0000
vt 0.4700 0.4700 0.0000
vt 0.5300 0.4700 0.0000
vt 1.0000 1.0000 0.0000
vt 0.0000 1.0000 0.0000
vt 0.0000 0.0000 0.0000
vt 1.0000 0.0000 0.0000
vt 0.9850 0.0150 0.0000
vt 0.0150 0.0150 0.0000
vt 0.9850 0.9850 0.0000
vt 0.0150 0.9850 0.0000
vt 0.9500 0.0500 0.0000
vt 0.0500 0.0500 0.0000
vt 0.9500 0.9500 0.0000
vt 0.0500 0.9500 0.0000
vt 0.8915 0.1085 0.0000
vt 0.1085 0.1085 0.0000
vt 0.8915 0.8915 0.0000
vt 0.1085 0.8915 0.0000
vt 0.8620 0.1380 0.0000
vt 0.1380 0.1380 0.0000
vt 0.8620 0.8620 0.0000
vt 0.1380 0.8620 0.0000
vt 0.8195 0.1805 0.0000
vt 0.1805 0.1805 0.0000
vt 0.8195 0.8195 0.0000
vt 0.1805 0.8195 0.0000
vt 0.4310 0.4310 0.0000
vt 0.4310 0.5690 0.0000
vt 0.5690 0.5690 0.0000
vt 0.5690 0.4310 0.0000
# 36 texture coords

o Highrise_9
g Highrise_9
s off
f 1/1/1 2/2/2 3/3/3 
f 4/4/4 1/1/1 3/3/3 
f 5/1/5 6/2/1 7/3/4 
f 8/4/6 5/1/5 7/3/4 
f 9/1/7 10/2/5 11/3/6 
f 12/4/8 9/1/7 11/3/6 
f 13/1/2 14/2/7 15/3/8 
f 16/4/3 13/1/2 15/3/8 
f 17/5/5 18/6/7 19/7/2 
f 20/8/1 17/5/5 19/7/2 
f 21/9/9 22/10/9 23/11/10 
f 24/12/11 21/9/9 23/11/10 
f 25/4/12 26/3/13 22/11/14 
f 21/12/14 25/4/12 22/11/14 
f 27/1/15 25/4/12 21/12/14 
f 28/9/14 27/1/15 21/12/14 
f 29/2/16 27/1/15 28/9/14 
f 30/10/14 29/2/16 28/9/14 
f 26/3/13 29/2/16 30/10/14 
f 22/11/14 26/3/13 30/10/14 
f 31/4/17 32/3/18 21/11/19 
f 24/12/11 31/4/17 21/11/19 
f 33/1/20 31/4/17 24/12/11 
f 34/9/21 33/1/20 24/12/11 
f 35/2/22 33/1/20 34/9/21 
f 28/10/19 35/2/22 34/9/21 
f 32/3/18 35/2/22 28/10/19 
f 21/11/19 32/3/18 28/10/19 
f 36/4/23 37/3/24 24/11/25 
f 23/12/25 36/4/23 24/11/25 
f 38/1/26 36/4/23 23/12/25 
f 39/9/25 38/1/26 23/12/25 
f 40/2/27 38/1/26 39/9/25 
f 34/10/25 40/2/27 39/9/25 
f 37/3/24 40/2/27 34/10/25 
f 24/11/25 37/3/24 34/10/25 
f 41/4/28 42/3/29 23/11/10 
f 22/12/30 41/4/28 23/11/10 
f 43/1/31 41/4/28 22/12/30 
f 30/9/30 43/1/31 22/12/30 
f 44/2/32 43/1/31 30/9/30 
f 39/10/33 44/2/32 30/9/30 
f 42/3/29 44/2/32 39/10/33 
f 23/11/10 42/3/29 39/10/33 
f 4/4/4 3/3/3 26/3/13 
f 25/4/12 4/4/4 26/3/13 
f 1/1/1 4/4/4 25/4/12 
f 27/1/15 1/1/1 25/4/12 
f 2/2/2 1/1/1 27/1/15 
f 29/2/16 2/2/2 27/1/15 
f 3/3/3 2/2/2 29/2/16 
f 26/3/13 3/3/3 29/2/16 
f 8/4/6 7/3/4 32/3/18 
f 31/4/17 8/4/6 32/3/18 
f 5/1/5 8/4/6 31/4/17 
f 33/1/20 5/1/5 31/4/17 
f 6/2/1 5/1/5 33/1/20 
f 35/2/22 6/2/1 33/1/20 
f 7/3/4 6/2/1 35/2/22 
f 32/3/18 7/3/4 35/2/22 
f 12/4/8 11/3/6 37/3/24 
f 36/4/23 12/4/8 37/3/24 
f 9/1/7 12/4/8 36/4/23 
f 38/1/26 9/1/7 36/4/23 
f 10/2/5 9/1/7 38/1/26 
f 40/2/27 10/2/5 38/1/26 
f 11/3/6 10/2/5 40/2/27 
f 37/3/24 11/3/6 40/2/27 
f 16/4/3 15/3/8 42/3/29 
f 41/4/28 16/4/3 42/3/29 
f 13/1/2 16/4/3 41/4/28 
f 43/1/31 13/1/2 41/4/28 
f 14/2/7 13/1/2 43/1/31 
f 44/2/32 14/2/7 43/1/31 
f 15/3/8 14/2/7 44/2/32 
f 42/3/29 15/3/8 44/2/32 
f 45/13/34 46/14/35 30/11/36 
f 28/12/36 45/13/34 30/11/36 
f 47/15/37 45/13/34 28/12/36 
f 34/9/21 47/15/37 28/12/36 
f 48/16/38 47/15/37 34/9/21 
f 39/10/33 48/16/38 34/9/21 
f 46/14/35 48/16/38 39/10/33 
f 30/11/36 46/14/35 39/10/33 
f 49/13/1 50/14/2 46/14/35 
f 45/13/34 49/13/1 46/14/35 
f 51/15/5 49/13/1 45/13/34 
f 47/15/37 51/15/5 45/13/34 
f 52/16/7 51/15/5 47/15/37 
f 48/16/38 52/16/7 47/15/37 
f 50/14/2 52/16/7 48/16/38 
f 46/14/35 50/14/2 48/16/38 
f 53/17/38 54/18/37 50/14/2 
f 49/13/1 53/17/38 50/14/2 
f 55/19/35 53/17/38 49/13/1 
f 51/15/5 55/19/35 49/13/1 
f 56/20/34 55/19/35 51/15/5 
f 52/16/7 56/20/34 51/15/5 
f 54/18/37 56/20/34 52/16/7 
f 50/14/2 54/18/37 52/16/7 
f 57/17/7 58/18/5 54/18/37 
f 53/17/38 57/17/7 54/18/37 
f 59/19/2 57/17/7 53/17/38 
f 55/19/35 59/19/2 53/17/38 
f 60/20/1 59/19/2 55/19/35 
f 56/20/34 60/20/1 55/19/35 
f 58/18/5 60/20/1 56/20/34 
f 54/18/37 58/18/5 56/20/34 
f 61/21/34 62/22/35 58/18/5 
f 57/17/7 61/21/34 58/18/5 
f 63/23/37 61/21/34 57/17/7 
f 59/19/2 63/23/37 57/17/7 
f 64/24/38 63/23/37 59/19/2 
f 60/20/1 64/24/38 59/19/2 
f 62/22/35 64/24/38 60/20/1 
f 58/18/5 62/22/35 60/20/1 
f 65/21/1 66/22/2 62/22/35 
f 61/21/34 65/21/1 62/22/35 
f 67/23/5 65/21/1 61/21/34 
f 63/23/37 67/23/5 61/21/34 
f 68/24/7 67/23/5 63/23/37 
f 64/24/38 68/24/7 63/23/37 
f 66/22/2 68/24/7 64/24/38 
f 62/22/35 66/22/2 64/24/38 
f 69/25/38 70/26/37 66/22/2 
f 65/21/1 69/25/38 66/22/2 
f 71/27/35 69/25/38 65/21/1 
f 67/23/5 71/27/35 65/21/1 
f 72/28/34 71/27/35 67/23/5 
f 68/24/7 72/28/34 67/23/5 
f 70/26/37 72/28/34 68/24/7 
f 66/22/2 70/26/37 68/24/7 
f 73/25/7 74/26/5 70/26/37 
f 69/25/38 73/25/7 70/26/37 
f 75/27/2 73/25/7 69/25/38 
f 71/27/35 75/27/2 69/25/38 
f 76/28/1 75/27/2 71/27/35 
f 72/28/34 76/28/1 71/27/35 
f 74/26/5 76/28/1 72/28/34 
f 70/26/37 74/26/5 72/28/34 
f 77/29/34 78/30/35 74/26/5 
f 73/25/7 77/29/34 74/26/5 
f 79/31/37 77/29/34 73/25/7 
f 75/27/2 79/31/37 73/25/7 
f 80/32/38 79/31/37 75/27/2 
f 76/28/1 80/32/38 75/27/2 
f 78/30/35 80/32/38 76/28/1 
f 74/26/5 78/30/35 76/28/1 
f 81/29/39 82/30/40 78/30/35 
f 77/29/34 81/29/39 78/30/35 
f 83/31/41 81/29/39 77/29/34 
f 79/31/37 83/31/41 77/29/34 
f 84/32/42 83/31/41 79/31/37 
f 80/32/38 84/32/42 79/31/37 
f 82/30/40 84/32/42 80/32/38 
f 78/30/35 82/30/40 80/32/38 
f 85/33/43 86/34/44 84/32/42 
f 82/30/40 85/33/43 84/32/42 
f 86/34/44 87/35/45 83/31/41 
f 84/32/42 86/34/44 83/31/41 
f 87/35/45 88/36/46 81/29/39 
f 83/31/41 87/35/45 81/29/39 
f 88/36/46 85/33/43 82/30/40 
f 81/29/39 88/36/46 82/30/40 
f 89/36/1 90/33/2 85/33/43 
f 88/36/46 89/36/1 85/33/43 
f 91/35/5 89/36/1 88/36/46 
f 87/35/45 91/35/5 88/36/46 
f 92/34/7 91/35/5 87/35/45 
f 86/34/44 92/34/7 87/35/45 
f 90/33/2 92/34/7 86/34/44 
f 85/33/43 90/33/2 86/34/44 
f 93/8/34 94/7/35 90/33/2 
f 89/36/1 93/8/34 90/33/2 
f 95/5/37 93/8/34 89/36/1 
f 91/35/5 95/5/37 89/36/1 
f 96/6/38 95/5/37 91/35/5 
f 92/34/7 96/6/38 91/35/5 
f 94/7/35 96/6/38 92/34/7 
f 90/33/2 94/7/35 92/34/7 
f 97/8/47 98/7/48 94/7/35 
f 93/8/34 97/8/47 94/7/35 
f 99/5/49 97/8/47 93/8/34 
f 95/5/37 99/5/49 93/8/34 
f 100/6/50 99/5/49 95/5/37 
f 96/6/38 100/6/50 95/5/37 
f 98/7/48 100/6/50 96/6/38 
f 94/7/35 98/7/48 96/6/38 
f 20/8/1 19/7/2 98/7/48 
f 97/8/47 20/8/1 98/7/48 
f 17/5/5 20/8/1 97/8/47 
f 99/5/49 17/5/5 97/8/47 
f 18/6/7 17/5/5 99/5/49 
f 100/6/50 18/6/7 99/5/49 
f 19/7/2 18/6/7 100/6/50 
f 98/7/48 19/7/2 100/6/50 
# 0 polygons - 196 triangles

