# 3ds Max Wavefront OBJ Exporter v0.97b - (c)2007 guruware
# File Created: 01.05.2018 13:11:56

#
# object Highrise_8
#

v  108.5000 100.7735 108.5000
v  -108.5000 100.7735 108.5000
v  -108.5000 0.7735 108.5000
v  108.5000 0.7735 108.5000
v  100.0000 200.7735 100.0000
v  -100.0000 200.7735 100.0000
v  -100.0000 100.7735 100.0000
v  100.0000 100.7735 100.0000
v  108.5000 100.7735 -108.5000
v  108.5000 0.7735 -108.5000
v  100.0000 200.7735 -100.0000
v  100.0000 100.7735 -100.0000
v  -108.5000 100.7735 -108.5000
v  -108.5000 0.7735 -108.5000
v  -100.0000 200.7735 -100.0000
v  -100.0000 100.7735 -100.0000
v  -8.9119 251.3958 -26.2000
v  -61.3119 251.3958 -26.2000
v  -61.3119 251.3958 26.2000
v  -8.9119 251.3958 26.2000
v  100.0000 0.7735 100.0000
v  -100.0000 0.7735 100.0000
v  -100.0000 0.7735 -100.0000
v  100.0000 0.7735 -100.0000
v  76.7999 221.5958 76.8000
v  -76.8000 221.5958 76.8000
v  76.7999 221.5958 -76.8000
v  -76.8000 221.5958 -76.8000
v  71.2000 221.5958 71.2000
v  -71.2001 221.5958 71.2000
v  71.2000 221.5958 -71.2000
v  -71.2001 221.5958 -71.2000
v  71.2000 215.7958 71.2000
v  -71.2001 215.7958 71.2000
v  71.2000 215.7958 -71.2000
v  -71.2001 215.7958 -71.2000
v  -8.9119 215.7958 26.2000
v  -61.3119 215.7958 26.2000
v  -8.9119 215.7958 -26.2000
v  -61.3119 215.7958 -26.2000
# 40 vertices

vn 0.0000 0.4472 0.8944
vn 0.0000 -0.4472 0.8944
vn 0.0000 0.0000 1.0000
vn 0.0000 0.8321 0.5547
vn 0.8944 0.4472 -0.0000
vn 0.8944 -0.4472 -0.0000
vn 0.8220 0.5195 -0.2331
vn 1.0000 0.0000 -0.0000
vn 0.5547 0.8321 -0.0000
vn 0.0000 0.4472 -0.8944
vn 0.0000 -0.4472 -0.8944
vn 0.0000 0.0000 -1.0000
vn 0.0000 0.8321 -0.5547
vn -0.8944 0.4472 -0.0000
vn -0.8944 -0.4472 -0.0000
vn -1.0000 0.0000 -0.0000
vn -0.8220 0.5195 -0.2331
vn -0.5547 0.8321 -0.0000
vn 0.5774 0.5774 -0.5774
vn -0.5774 0.5774 -0.5774
vn -0.5774 0.5774 0.5774
vn 0.5774 0.5774 0.5774
vn 0.0000 -1.0000 -0.0000
vn 0.2791 0.9188 0.2791
vn -0.2791 0.9188 0.2791
vn -0.3789 0.8443 0.3789
vn 0.3789 0.8443 0.3789
vn 0.2791 0.9188 -0.2791
vn -0.2791 0.9188 -0.2791
vn -0.3015 0.9045 -0.3015
vn 0.3015 0.9045 -0.3015
vn -0.3015 0.9045 0.3015
vn 0.3015 0.9045 0.3015
# 33 vertex normals

vt 1.0000 0.5000 0.0000
vt 0.0000 0.5000 0.0000
vt 0.0000 0.0000 0.0000
vt 1.0000 0.0000 0.0000
vt 1.0000 1.0000 0.0000
vt 0.0000 1.0000 0.0000
vt 0.6706 0.6706 0.0000
vt 0.3294 0.6706 0.0000
vt 0.3294 0.3294 0.0000
vt 0.6706 0.3294 0.0000
vt 0.9635 0.0365 0.0000
vt 0.0365 0.0365 0.0000
vt 0.9635 0.9635 0.0000
vt 0.0365 0.9635 0.0000
# 14 texture coords

o Highrise_8
g Highrise_8
s off
f 1/1/1 2/2/1 3/3/2 
f 4/4/2 1/1/1 3/3/2 
f 5/5/3 6/6/3 7/2/4 
f 8/1/4 5/5/3 7/2/4 
f 9/1/5 1/2/5 4/3/6 
f 10/4/6 9/1/5 4/3/6 
f 11/5/7 5/6/8 8/2/9 
f 12/1/9 11/5/7 8/2/9 
f 13/1/10 9/2/10 10/3/11 
f 14/4/11 13/1/10 10/3/11 
f 15/5/12 11/6/12 12/2/13 
f 16/1/13 15/5/12 12/2/13 
f 2/1/14 13/2/14 14/3/15 
f 3/4/15 2/1/14 14/3/15 
f 6/5/16 15/6/17 16/2/18 
f 7/1/18 6/5/16 16/2/18 
f 17/7/19 18/8/20 19/9/21 
f 20/10/22 17/7/19 19/9/21 
f 21/5/23 22/6/23 23/3/23 
f 24/4/23 21/5/23 23/3/23 
f 4/4/2 3/3/2 22/3/23 
f 21/4/23 4/4/2 22/3/23 
f 2/2/1 1/1/1 8/1/4 
f 7/2/4 2/2/1 8/1/4 
f 10/4/6 4/3/6 21/3/23 
f 24/4/23 10/4/6 21/3/23 
f 1/2/5 9/1/5 12/1/9 
f 8/2/9 1/2/5 12/1/9 
f 14/4/11 10/3/11 24/3/23 
f 23/4/23 14/4/11 24/3/23 
f 9/2/10 13/1/10 16/1/13 
f 12/2/13 9/2/10 16/1/13 
f 3/4/15 14/3/15 23/3/23 
f 22/4/23 3/4/15 23/3/23 
f 13/2/14 2/1/14 7/1/18 
f 16/2/18 13/2/14 7/1/18 
f 25/4/24 26/3/25 6/3/26 
f 5/4/27 25/4/24 6/3/26 
f 27/5/28 25/4/24 5/4/27 
f 11/5/7 27/5/28 5/4/27 
f 28/6/29 27/5/28 11/5/7 
f 15/6/17 28/6/29 11/5/7 
f 26/3/25 28/6/29 15/6/17 
f 6/3/26 26/3/25 15/6/17 
f 29/11/30 30/12/31 26/3/25 
f 25/4/24 29/11/30 26/3/25 
f 31/13/32 29/11/30 25/4/24 
f 27/5/28 31/13/32 25/4/24 
f 32/14/33 31/13/32 27/5/28 
f 28/6/29 32/14/33 27/5/28 
f 30/12/31 32/14/33 28/6/29 
f 26/3/25 30/12/31 28/6/29 
f 33/11/20 34/12/19 30/12/31 
f 29/11/30 33/11/20 30/12/31 
f 35/13/21 33/11/20 29/11/30 
f 31/13/32 35/13/21 29/11/30 
f 36/14/22 35/13/21 31/13/32 
f 32/14/33 36/14/22 31/13/32 
f 34/12/19 36/14/22 32/14/33 
f 30/12/31 34/12/19 32/14/33 
f 37/10/33 38/9/32 34/12/19 
f 33/11/20 37/10/33 34/12/19 
f 39/7/31 37/10/33 33/11/20 
f 35/13/21 39/7/31 33/11/20 
f 40/8/30 39/7/31 35/13/21 
f 36/14/22 40/8/30 35/13/21 
f 38/9/32 40/8/30 36/14/22 
f 34/12/19 38/9/32 36/14/22 
f 20/10/22 19/9/21 38/9/32 
f 37/10/33 20/10/22 38/9/32 
f 17/7/19 20/10/22 37/10/33 
f 39/7/31 17/7/19 37/10/33 
f 18/8/20 17/7/19 39/7/31 
f 40/8/30 18/8/20 39/7/31 
f 19/9/21 18/8/20 40/8/30 
f 38/9/32 19/9/21 40/8/30 
# 0 polygons - 76 triangles

